/* XPM */
static char *xpm__default_instrument[] = {
/* columns rows colors chars-per-pixel */
"48 48 103 2 ",
"   c #2A2A53",
".  c #2B2B54",
"X  c #2C2C54",
"o  c #2D2D55",
"O  c #313157",
"+  c #333358",
"@  c #35355A",
"#  c #37375B",
"$  c #37375D",
"%  c #38385E",
"&  c #3C3C5E",
"*  c #3A3A60",
"=  c #3D3D63",
"-  c #3E3E63",
";  c #424267",
":  c #474765",
">  c #494966",
",  c #454569",
"<  c #48486B",
"1  c #4C4C68",
"2  c #49496C",
"3  c #4C4C6F",
"4  c #55556E",
"5  c #4E4E70",
"6  c #505071",
"7  c #545475",
"8  c #555576",
"9  c #585870",
"0  c #5C5C72",
"q  c #5D5D73",
"w  c #585878",
"e  c #5B5B7B",
"r  c #5F5F7E",
"t  c #626276",
"y  c #646477",
"u  c #60607F",
"i  c #6F6F7E",
"p  c #70707E",
"a  c #636381",
"s  c #646482",
"d  c #676784",
"f  c #696986",
"g  c #6B6B88",
"h  c #6C6C88",
"j  c #6F6F8B",
"k  c #727280",
"l  c #7D7D87",
"z  c #70708C",
"x  c #71718C",
"c  c #74748E",
"v  c #7F7F88",
"b  c #777791",
"n  c #7A7A94",
"m  c #7E7E96",
"M  c #808088",
"N  c #8B8B8F",
"B  c #8E8E91",
"V  c #86869D",
"C  c #88889F",
"Z  c #929293",
"A  c #939394",
"S  c gray59",
"D  c #8989A0",
"F  c #9090A5",
"G  c #9494A9",
"H  c #9C9CAF",
"J  c #9D9DB0",
"K  c #A0A0B2",
"L  c #A4A4B5",
"P  c #A7A7B8",
"I  c #A8A8B9",
"U  c #ABABBC",
"Y  c #AEAEBE",
"T  c #B1B1C0",
"R  c #B5B5C3",
"E  c #B7B7C5",
"W  c #BABAC7",
"Q  c #BBBBC8",
"!  c #BDBDCA",
"~  c #BFBFCB",
"^  c #C0C0CC",
"/  c #C6C6D1",
"(  c #C8C8D2",
")  c #CBCBD5",
"_  c #CDCDD7",
"`  c #CFCFD8",
"'  c #D2D2DB",
"]  c #D7D7DF",
"[  c #D8D8DF",
"{  c #DDDDE3",
"}  c #DEDEE4",
"|  c #E0E0E6",
" . c #E3E3E9",
".. c #E5E5EA",
"X. c #E7E7EB",
"o. c #EBEBEF",
"O. c #EDEDF0",
"+. c #EEEEF2",
"@. c #F1F1F4",
"#. c #F2F2F5",
"$. c #F4F4F6",
"%. c #FCFCFD",
"&. c #FEFEFE",
/* pixels */
"S S S S S S S S S S S S S S S S S S S S S S S S S S S S S S S S S S S S S S S S S S S S S S S S ",
"S S S S S S S S S S S S S S S S S S S S S S S S S S S S S S S S S S S S S S S S S S S S S S S S ",
"S S S S S S S S S S S S S S S S S S S S S S S S S S S S S S S S S S S S S S S S S S S S S S S S ",
"S S S S S S S S S S S S S S S S S S S S S S S S S S S S S S S S S S S S S S S S S S S S S S S S ",
"S S S S S S S S S S S S S S S S S A l t 1 & O o o O & 1 t l S S S S S S S S S S S S S S S S S S ",
"S S S S S S S S S S S S S S S N 0 @                         @ 0 N S S S S S S S S S S S S S S S ",
"S S S S S S S S S S S S S B 4 o                                 o 4 B S S S S S S S S S S S S S ",
"S S S S S S S S S S S S i +                                         + i S S S S S S S S S S S S ",
"S S S S S S S S S S S 4                 ; r g h r ;       .             4 S S S S S S S S S S S ",
"S S S S S S S S S Z >           o d T o.&.&.&.&.&.&.+.E g o               > Z S S S S S S S S S ",
"S S S S S S S S A >     .   o s ] &.&.&.&.&.&.&.&.&.&.&.&...n .             : A S S S S S S S S ",
"S S S S S S S S 4       . $ ~ &.&.&.&.&.&.&.&.&.&.&.&.&.&.&.&.) ,             4 S S S S S S S S ",
"S S S S S S S i         2 | &.&.&.&.&...P C c z V K } &.&.&.&.&.+.e             k S S S S S S S ",
"S S S S S S B +       2 @.&.&.&.&./ e o               3 W &.&.&.&.$.& .       o + B S S S S S S ",
"S S S S S S 4       $ } &.&.&.@.h                         e +.&._ 3       h +.! o 4 S S S S S S ",
"S S S S S N o       ! &.&.&...3                             ; m     e Y   ' &.&.r . N S S S S S ",
"S S S S S 0       u &.&.&.$.3                                   + J &.&.n D &.} $   0 S S S S S ",
"S S S S S +       ] &.&.&.h                                   e } &.&.&...o * o .   @ A S S S S ",
"S S S S v .     s &.&.&._                               . + H &.&.&.&.&.&.h         . v S S S S ",
"S S S S t       I &.&.&.u                               e } &.&.&.&.&.&.&.Q         . t S S S S ",
"S S S S 1 .     ..&.&.+.o                         . @ L &.&.&.&. .u [ &.&.+..         1 S S S S ",
"S S S S &     & &.&.&.Y                           r  .&.&.&.&.I $   J &.&.&.2         & S S S S ",
"S S S S +     8 &.&.&.F                       $ P &.&.&.&...a .     n &.&.&.u         + S S S S ",
"S S S S o     s &.&.&.n                     a ..&.&.&.&.+.+         f &.&.&.z         o S S S S ",
"S S S S .     a &.&.&.m                   e _ @.&.&.&.&.&.;         f &.&.&.c .       o S S S S ",
"S S S S + .   7 &.&.&.F                       o 2 g G W  .b         m &.&.&.d         + S S S S ",
"S S S S $     $ &.&.&.Y                         .                   J &.&.&.2 .       & S S S S ",
"S S S S 1     . ..&.&.+.                                            { &.&.@.o o     . 1 S S S S ",
"S S S S y       I &.&.&.r                                         5 &.&.&.Q           t S S S S ",
"S S S S v       s &.&.&._                                         Q &.&.&.z         . v S S S S ",
"S S S S S $       ' &.&.&.z                                     u &.&.&.| o         @ S S S S S ",
"S S S S S 0       u &.&.&.$.6                                 ; +.&.&.&.z .       . 0 S S S S S ",
"S S S S S B .       Q &.&.&...5 . .                         , { &.&.&._ .         o N S S S S S ",
"S S S S S S 4       $ } &.&.&.@.h .                       s +.&.&.&...-           0 S S S S S S ",
"S S S S S S B +       , @.&.&.&.&.( e         o   .   8 ^ &.&.&.&.$.8           O B S S S S S S ",
"S S S S S S S i         2 } &.&.&.&.&.o.I C z z V L } &.&.&.&.&...8           o k S S S S S S S ",
"S S S S S S S S 4       . $ ! &.&.&.&.&.&.&.&.&.&.&.&.&.&.&.&.( - .           4 S S S S S S S S ",
"S S S S S S S S S 1           a ] &.&.&.&.&.&.&.&.&.&.&.&.} z .             > S S S S S S S S S ",
"S S S S S S S S S Z >             s Y o.&.&.&.&.&.&.+.R h o .             > A S S S S S S S S S ",
"S S S S S S S S S S S 4                 - r f g u ;     . .             4 S S S S S S S S S S S ",
"S S S S S S S S S S S S i +                                         + k S S S S S S S S S S S S ",
"S S S S S S S S S S S S S B 4 o   .                           . . 9 B S S S S S S S S S S S S S ",
"S S S S S S S S S S S S S S S N 0 @       o                 @ 0 N S S S S S S S S S S S S S S S ",
"S S S S S S S S S S S S S S S S S S l y 1 & + o o O - 1 y M S S S S S S S S S S S S S S S S S S ",
"S S S S S S S S S S S S S S S S S S S S S S S S S S S S S S S S S S S S S S S S S S S S S S S S ",
"S S S S S S S S S S S S S S S S S S S S S S S S S S S S S S S S S S S S S S S S S S S S S S S S ",
"S S S S S S S S S S S S S S S S S S S S S S S S S S S S S S S S S S S S S S S S S S S S S S S S ",
"S S S S S S S S S S S S S S S S S S S S S S S S S S S S S S S S S S S S S S S S S S S S S S S S "
};
