/* XPM */
static char *audacity[] = {
/* columns rows colors chars-per-pixel */
"48 48 166 2 ",
"   c #292953",
".  c #2A2A52",
"X  c #2A2A53",
"o  c #2B2B53",
"O  c #2A2A54",
"+  c #2B2B54",
"@  c #2C2C54",
"#  c #2D2D55",
"$  c #2D2D56",
"%  c #2E2E56",
"&  c #2F2F57",
"*  c #303058",
"=  c #313158",
"-  c #323259",
";  c #33335A",
":  c #34345B",
">  c #35355C",
",  c #37375D",
"<  c #37375E",
"1  c #38385E",
"2  c #3A3A60",
"3  c #3B3B60",
"4  c #3C3C61",
"5  c #3D3D63",
"6  c #3F3F64",
"7  c #404065",
"8  c #414165",
"9  c #414166",
"0  c #434367",
"q  c #444468",
"w  c #464669",
"e  c #46466A",
"r  c #47476B",
"t  c #48486B",
"y  c #49496C",
"u  c #4A4A6D",
"i  c #4B4B6D",
"p  c #4B4B6E",
"a  c #4C4C6F",
"s  c #4D4D6F",
"d  c #4E4E70",
"f  c #4F4F71",
"g  c #505071",
"h  c #505072",
"j  c #515173",
"k  c #525273",
"l  c #535374",
"z  c #545475",
"x  c #555575",
"c  c #555576",
"v  c #565677",
"b  c #575777",
"n  c #595979",
"m  c #5A5A79",
"M  c #5A5A7A",
"N  c #5B5B7B",
"B  c #5C5C7B",
"V  c #5D5D7C",
"C  c #5E5E7D",
"Z  c #5F5F7E",
"A  c #60607F",
"S  c #676784",
"D  c #686885",
"F  c #696986",
"G  c #6B6B88",
"H  c #6C6C88",
"J  c #6D6D89",
"K  c #6F6F8B",
"L  c #71718C",
"P  c #72728D",
"I  c #73738E",
"U  c #74748E",
"Y  c #74748F",
"T  c #757590",
"R  c #767690",
"E  c #777791",
"W  c #797993",
"Q  c #7B7B94",
"!  c #7C7C95",
"~  c #7D7D96",
"^  c #7E7E96",
"/  c #7E7E97",
"(  c #83839A",
")  c #88889F",
"_  c #8989A0",
"`  c #8A8AA1",
"'  c #8C8CA2",
"]  c #8D8DA3",
"[  c #8E8EA4",
"{  c #9090A5",
"}  c #9292A7",
"|  c #9595A9",
" . c #9696AA",
".. c #9797AB",
"X. c #9999AD",
"o. c #9A9AAD",
"O. c #9B9BAE",
"+. c #9D9DB0",
"@. c #9F9FB1",
"#. c #A0A0B2",
"$. c #A4A4B5",
"%. c #A6A6B7",
"&. c #A7A7B8",
"*. c #A9A9BA",
"=. c #AAAABA",
"-. c #ABABBB",
";. c #ABABBC",
":. c #ADADBD",
">. c #B0B0BF",
",. c #B0B0C0",
"<. c #B1B1C0",
"1. c #B3B3C2",
"2. c #B4B4C2",
"3. c #B8B8C6",
"4. c #BEBECA",
"5. c #BFBFCB",
"6. c #C0C0CC",
"7. c #C1C1CD",
"8. c #C2C2CE",
"9. c #C3C3CE",
"0. c #C4C4CF",
"q. c #C5C5D0",
"w. c #C7C7D2",
"e. c #C9C9D3",
"r. c #CACAD4",
"t. c #CACAD5",
"y. c #CDCDD7",
"u. c #CECED7",
"i. c #CFCFD8",
"p. c #D0D0D9",
"a. c #D1D1DA",
"s. c #D3D3DB",
"d. c #D4D4DC",
"f. c #D4D4DD",
"g. c #D5D5DD",
"h. c #D6D6DE",
"j. c #D7D7DF",
"k. c #D8D8DF",
"l. c #DEDEE4",
"z. c #DFDFE5",
"x. c #E0E0E6",
"c. c #E2E2E7",
"v. c #E3E3E9",
"b. c #E5E5EA",
"n. c #E7E7EB",
"m. c #E8E8EC",
"M. c #EAEAEE",
"N. c #EBEBEF",
"B. c #ECECEF",
"V. c #F0F0F3",
"C. c #F1F1F4",
"Z. c #F3F3F6",
"A. c #F4F4F6",
"S. c #F5F5F7",
"D. c #F7F7F8",
"F. c #F7F7F9",
"G. c #F8F8FA",
"H. c #F9F9FA",
"J. c #FAFAFB",
"K. c #FBFBFC",
"L. c gray99",
"P. c #FCFCFD",
"I. c #FDFDFE",
"U. c #FEFEFE",
"Y. c white",
"T. c None",
/* pixels */
"T.T.T.T.T.T.T.T.T.T.T.T.T.T.T.T.T.T.T.X X X X X X X X X X T.T.T.T.T.T.T.T.T.T.T.T.T.T.T.T.T.T.T.",
"T.T.T.T.T.T.T.T.T.T.T.T.T.T.T.T.X X X X X X X X X X X X X X X X T.T.T.T.T.T.T.T.T.T.T.T.T.T.T.T.",
"T.T.T.T.T.T.T.T.T.T.T.T.T.X X X X X X X X X X X X X X X X X X X X X + T.T.T.T.T.T.T.T.T.T.T.T.T.",
"T.T.T.T.T.T.T.T.T.T.T.T.X X X X X X X X X X X X X X X X X X X X X X X X + T.T.T.T.T.T.T.T.T.T.T.",
"T.T.T.T.T.T.T.T.T.T.X X X X X X X X X X X X X X X X X X X X X X X X X X X X T.T.T.T.T.T.T.T.T.T.",
"T.T.T.T.T.T.T.T.T.X X X X X X X X X X 3 B L Q E J j * X X X X X X X X X X X X T.T.T.T.T.T.T.T.T.",
"T.T.T.T.T.T.T.T.X X X X X X X @ Z -.x.Y.Y.Y.Y.Y.Y.Y.Y.i.| e X X X X X X X X X X T.T.T.T.T.T.T.T.",
"T.T.T.T.T.T.T.X X X X X + @ ! z.Y.Y.Y.Y.Y.Y.Y.Y.Y.Y.Y.Y.Y.Y.0.n X X X X X X X X X T.T.T.T.T.T.T.",
"T.T.T.T.T.T.X X X X X X x j.Y.Y.Y.Y.Y.Y.Y.Y.Y.Y.Y.Y.Y.Y.Y.Y.Y.Y.2.3 + + X X X X X @ T.T.T.T.T.T.",
"T.T.T.T.T.X X X X X @ ' Y.Y.Y.Y.Y.Y.Y.Y.Y.Y.J.Y.Y.Y.Y.Y.Y.Y.Y.Y.Y.m.n + X X X X X X X T.T.T.T.T.",
"T.T.T.T.X X X X + @ -.Y.Y.Y.Y.Y.Y.F.5.! j 3 X @ 6 x ' t.J.Y.Y.Y.Y.Y.K.L X X X X X X X X T.T.T.T.",
"T.T.T.T.X X X X + :.Y.Y.Y.Y.Y.F.X., X X X X X X X X X X e 1.Y.Y.Y.Y.Y.A.e X X X X X X X T.T.T.T.",
"T.T.T.X X X X X } Y.Y.Y.Y.Y.q.7 X X X X X X X X X X X X X X x m.Y.Y.t.u + + X + ' B.6.1 X T.T.T.",
"T.T.X X X X X Z Y.Y.Y.Y.Y.$.@ X X X X X X X X X X X X X X X X 6 6.! + X + ( = 6 Y.Y.Y.` X X T.T.",
"T.T.X X X X = x.Y.Y.Y.Y.@.X X X X X X X X X X X X X X X X X X X X X X u i.Y.@., J.Y.Y.Q X X T.T.",
"T.T.X X X X ' Y.Y.Y.Y.5.@ + X X X X X X X X X X X X X X X X X X + @ ` J.Y.Y.K.d D 6.| @ X X T.T.",
"T.X X X X = m.Y.Y.Y.V.1 X X X X X X X X X X X X X X X X X X X X a s.Y.Y.Y.Y.Y.-.X X X X X X X T.",
"T.X X X X Y Y.Y.Y.Y.` X X X X X X X X X X X X X X X X + X X @ ' J.Y.Y.Y.Y.Y.Y.A.1 X X X X X X T.",
"T.X X X X 6.Y.Y.Y.B.= X X X X X X X X X X X X X X X X + + d j.Y.Y.Y.Y.Y.Y.Y.Y.Y.! X X X X X X T.",
"X X X + @ A.Y.Y.Y.-.X X X X X X X X X X X X X X X X X @ } J.Y.Y.Y.Y.F.) x.Y.Y.Y.>.X X X X X X X ",
"X X X X x Y.Y.Y.Y.S X X X X X X X X X X X X X X X X j j.Y.Y.Y.Y.Y.y.u X %.Y.Y.Y.n.X X X X X X X ",
"X X X X E Y.Y.Y.Y.: X X X X X X X X X X X X X + @ | J.Y.Y.Y.Y.F.) @ X X L Y.Y.Y.Y.: X X X X X X ",
"X X X X [ Y.Y.Y.A.X X X X X X X X X X X X @ + l l.Y.Y.Y.Y.Y.y.t X X X X n Y.Y.Y.Y.e + X X X X X ",
"X X X X | Y.Y.Y.z.X X X X X X X X X X X X @ ..K.Y.Y.Y.Y.Y.n.+ X X X X + e Y.Y.Y.Y.x X X X X X X ",
"X X X X | Y.Y.Y.x.X X X X X X X X X X X = :.J.Y.Y.Y.Y.Y.Y.Y.7 X X X X X e Y.Y.Y.Y.n X X X X X X ",
"X X X X [ Y.Y.Y.C.X X X X X X X X X X X + + @ a L ..6.n.Y.Y.E X X X X X Z Y.Y.Y.Y.d X X X X X X ",
"X X X X E Y.Y.Y.Y., X X X X X X X X X X + X X X + X X X 1 Z x + X X X X Y Y.Y.Y.Y., X X X X X X ",
"X X X X l Y.Y.Y.Y.D X X X X X X X X X X X X X X X X X X X X X + X X X X &.Y.Y.Y.m.X X X X X X X ",
"X X X X @ C.Y.Y.Y.-.X X X X X X X X X X X X X X X X X X X X X X X X X X n.Y.Y.Y.3.+ + X X X X @ ",
"T.X X X + 5.Y.Y.Y.m.= X X X X X X X X X X X X X X X X X X X X X X X X Z Y.Y.Y.Y.! @ X X X X X T.",
"T.X X X + Y Y.Y.Y.Y.' X X X X X X X X X X X X X X X X X X X X X X X X e.Y.Y.Y.J.3 X X X X X X T.",
"T.X X X X = m.Y.Y.Y.C.3 X X X X X X X X X X X X X X X X X X X X + + D Y.Y.Y.Y.1.X X X X X X X T.",
"T.T.X X X X ) Y.Y.Y.Y.6.@ + X X X X X X X X X X X X X X X X X X X 7 m.Y.Y.Y.K.u + X X X X X T.T.",
"T.T.X X X X = z.Y.Y.Y.Y.#.@ X X X X X X X X X X X X X X X X X X = l.Y.Y.Y.Y.$.+ X X X X X X T.T.",
"T.T.+ X X X X Z Y.Y.Y.Y.Y.%.@ + X X X X X X X X X X X X X X X 7 s.Y.Y.Y.Y.v., X X X X X X + T.T.",
"T.T.T.X X X X X [ Y.Y.Y.Y.Y.e.7 X X X X X X X X X X X X X X A m.Y.Y.Y.Y.J.x X X X X X X X T.T.T.",
"T.T.T.T.X X X X + ;.Y.Y.Y.Y.Y.F.X., + + X X X X X X X X a 5.Y.Y.Y.Y.Y.Y.J X X X X X X X T.T.T.T.",
"T.T.T.T.X X X X + @ &.Y.Y.Y.Y.Y.Y.J.5./ d 6 X @ 7 n } j.Y.Y.Y.Y.Y.Y.J.L X X X X X X X X T.T.T.T.",
"T.T.T.T.T.X X X + X X ` J.Y.Y.Y.Y.Y.Y.Y.Y.Y.J.Y.Y.Y.Y.Y.Y.Y.Y.Y.Y.m.B X X X X X X X X T.T.T.T.T.",
"T.T.T.T.T.T.X X X X X X x j.Y.Y.Y.Y.Y.Y.Y.Y.Y.Y.Y.Y.Y.Y.Y.Y.Y.Y.1.1 X X X X X X X X T.T.T.T.T.T.",
"T.T.T.T.T.T.T.X X X X X X @ Q z.Y.Y.Y.Y.Y.Y.Y.Y.Y.Y.Y.Y.Y.Y.6.n X X X X X X X X X T.T.T.T.T.T.T.",
"T.T.T.T.T.T.T.T.X X X X X X X X Z &.z.Y.Y.Y.Y.Y.Y.Y.Y.y.} e + X X X X X X X X X T.T.T.T.T.T.T.T.",
"T.T.T.T.T.T.T.T.T.X X X X X X X X X X 3 n L Q E D j * X X X X X X X X X X X X T.T.T.T.T.T.T.T.T.",
"T.T.T.T.T.T.T.T.T.T.X X X X X X X X X X X X X X X X X X X X X X X X X X X X T.T.T.T.T.T.T.T.T.T.",
"T.T.T.T.T.T.T.T.T.T.T.T.X X X X X X X X X X X X X X X X X X X X X X X X + T.T.T.T.T.T.T.T.T.T.T.",
"T.T.T.T.T.T.T.T.T.T.T.T.T.X X X X X X X X X X X X X X X X X X X X X X T.T.T.T.T.T.T.T.T.T.T.T.T.",
"T.T.T.T.T.T.T.T.T.T.T.T.T.T.T.T.X X X X X X X X X X X X X X X X T.T.T.T.T.T.T.T.T.T.T.T.T.T.T.T.",
"T.T.T.T.T.T.T.T.T.T.T.T.T.T.T.T.T.T.T.+ X @ X X X X X + + T.T.T.T.T.T.T.T.T.T.T.T.T.T.T.T.T.T.T."
};
