/* XPM */
static char *audacity[] = {
/* columns rows colors chars-per-pixel */
"32 32 133 2 ",
"   c #292953",
".  c #2A2A52",
"X  c #2B2B52",
"o  c #2A2A53",
"O  c #2B2B53",
"+  c #2A2A54",
"@  c #2B2B54",
"#  c #2C2C54",
"$  c #2D2D55",
"%  c #2D2D56",
"&  c #2F2F57",
"*  c #303058",
"=  c #313158",
"-  c #33335A",
";  c #34345B",
":  c #36365C",
">  c #38385E",
",  c #3A3A60",
"<  c #3C3C61",
"1  c #3C3C62",
"2  c #3D3D63",
"3  c #3E3E63",
"4  c #3F3F64",
"5  c #404065",
"6  c #414165",
"7  c #414166",
"8  c #424267",
"9  c #434367",
"0  c #444468",
"q  c #454569",
"w  c #464669",
"e  c #46466A",
"r  c #4A4A6D",
"t  c #4B4B6D",
"y  c #505072",
"u  c #515173",
"i  c #525273",
"p  c #545475",
"a  c #555576",
"s  c #575777",
"d  c #585878",
"f  c #5A5A79",
"g  c #5A5A7A",
"h  c #5B5B7B",
"j  c #5C5C7B",
"k  c #5D5D7C",
"l  c #5E5E7D",
"z  c #5F5F7D",
"x  c #60607F",
"c  c #636381",
"v  c #676784",
"b  c #686885",
"n  c #6B6B88",
"m  c #6E6E8A",
"M  c #72728D",
"N  c #74748F",
"B  c #7B7B94",
"V  c #7C7C95",
"C  c #7F7F98",
"Z  c #818199",
"A  c #83839A",
"S  c #86869D",
"D  c #88889F",
"F  c #8989A0",
"G  c #8A8AA1",
"H  c #8B8BA1",
"J  c #8C8CA2",
"K  c #8D8DA3",
"L  c #8F8FA5",
"P  c #9191A6",
"I  c #9292A7",
"U  c #9A9AAD",
"Y  c #9C9CAF",
"T  c #9D9DB0",
"R  c #A0A0B2",
"E  c #A1A1B3",
"W  c #A3A3B5",
"Q  c #A4A4B5",
"!  c #A8A8B9",
"~  c #AAAABA",
"^  c #ABABBC",
"/  c #ACACBC",
"(  c #AEAEBE",
")  c #AFAFBE",
"_  c #B0B0BF",
"`  c #B0B0C0",
"'  c #B2B2C1",
"]  c #B3B3C2",
"[  c #B5B5C4",
"{  c #B6B6C4",
"}  c #B8B8C6",
"|  c #B9B9C6",
" . c #BABAC7",
".. c #BBBBC8",
"X. c #C0C0CC",
"o. c #C1C1CD",
"O. c #C6C6D1",
"+. c #C8C8D2",
"@. c #CACAD4",
"#. c #CACAD5",
"$. c #CCCCD6",
"%. c #CDCDD7",
"&. c #CFCFD8",
"*. c #D0D0D9",
"=. c #D3D3DB",
"-. c #D6D6DE",
";. c #D7D7DF",
":. c #D8D8DF",
">. c #D9D9E0",
",. c #E2E2E7",
"<. c #E5E5EA",
"1. c #E8E8EC",
"2. c #E9E9ED",
"3. c #EAEAEE",
"4. c #EBEBEF",
"5. c #ECECEF",
"6. c #EDEDF0",
"7. c #EDEDF1",
"8. c #EFEFF2",
"9. c #F1F1F4",
"0. c #F3F3F6",
"q. c #F4F4F6",
"w. c #F5F5F7",
"e. c #F7F7F8",
"r. c #F9F9FA",
"t. c #FAFAFB",
"y. c #FBFBFC",
"u. c gray99",
"i. c #FCFCFD",
"p. c #FDFDFE",
"a. c #FEFEFE",
"s. c white",
"d. c None",
/* pixels */
"d.d.d.d.d.d.d.d.d.d.d.d.o o o o o o o o d.d.d.d.d.d.d.d.d.d.d.d.",
"d.d.d.d.d.d.d.d.d.o o o o o o o o o o o o o O d.d.d.d.d.d.d.d.d.",
"d.d.d.d.d.d.d.+ o o o o o o o o o o o o o o o o O d.d.d.d.d.d.d.",
"d.d.d.d.d.d.o o o o o o & 3 y j w * o o o o o o o o d.d.d.d.d.d.",
"d.d.d.d.d.O o o o + b ) 7.s.s.s.s.s.%.D 3 o o o o o o d.d.d.d.d.",
"d.d.d.d.o o o o h *.s.s.s.s.s.s.s.s.s.s.w.P * o o o o o d.d.d.d.",
"d.d.d.o o o o F y.s.s.s.s.;.X.{ +.7.s.s.s.s.;.3 o o o o O d.d.d.",
"d.d.+ o o o E s.s.s.3.S 3 o o o o O h | s.s.s.,.: o o o o o d.d.",
"d.d.o o o Z s.s.s.` - o o o o o o o o o c 7.;.p o & y 3.[ o d.d.",
"d.o o o r y.s.s.U o o o o o o o o o o o o 3 & > _ ! V s.0.o o d.",
"d.o o o | s.s...+ o o o o o o o o o o o o o n 3.s.s.p A h o o d.",
"d.o o r s.s.e.4 o o o o o o o o o o o + , ` s.s.s.s.! + o o o d.",
"o o o K s.s.W o o o o o o o o o o o o m 5.s.s.w.r.s.w.& o o o o ",
"o o o @.s.s.k o o o o o o o o o o 3 [ s.s.s.O.0 *.s.s.p o o o o ",
"o o o <.s.s.& o o o o o o o o + M 5.s.s.0.V + o Y s.s.B o o o o ",
"o o O r.s.7.o o o o o o o o 3 | s.s.s.w.w o o o D s.s.K o o o o ",
"o o + r.s.7.o o o o o o o & P +.7.s.s.s.6 & o o D s.s.F o o o o ",
"o o o <.s.s.* o o o o o o o + o o 6 v K y o o o E s.s.N o o o o ",
"o o o @.s.s.k o o o o o o o o o o o o o o o o o &.s.s.p o o o o ",
"o o o K s.s.W o o o o o o o o o o o o o o o o 0 s.s.7.& o o o o ",
"d.o o r s.s.e.6 o o o o o o o o o o o o o o o ! s.s.) o o o o d.",
"d.o o o | s.s...o o o o o o o o o o o o o o k r.s.r.r o o o o d.",
"d.o o o r r.s.s.Y + o o o o o o o o o o o r 7.s.s.! o o o o o d.",
"d.d.o o o C s.s.s.` ; o o o o o o o o o b 0.s.s.>.; o o o o d.d.",
"d.d.o o o o E s.s.s.3.D 3 o o o o & x X.s.s.s.3.0 + o o o o d.d.",
"d.d.d.o o o o D s.s.s.s.s.:.X.{ %.7.s.s.s.s.*.4 o o o o O d.d.d.",
"d.d.d.d.o o o o h %.s.s.s.s.s.s.s.s.s.s.0.P - o o o o + d.d.d.d.",
"d.d.d.d.d.o o o o o v ) 7.s.s.s.s.s.%.F 3 o o o o o o d.d.d.d.d.",
"d.d.d.d.d.d.o o o o o o o 3 y j 0 * o o o o o o o O d.d.d.d.d.d.",
"d.d.d.d.d.d.d.o o o o o o o o o o o o o o o o o o d.d.d.d.d.d.d.",
"d.d.d.d.d.d.d.d.d.o o o o o o o o o o o o o o d.d.d.d.d.d.d.d.d.",
"d.d.d.d.d.d.d.d.d.d.d.d.o o o o o o o o d.d.d.d.d.d.d.d.d.d.d.d."
};
