/* XPM */
static char *AudacityLogoAlpha[] = {
/* columns rows colors chars-per-pixel */
"48 48 144 2 ",
"   c #292953",
".  c #2A2A52",
"X  c #2B2B52",
"o  c #2A2A53",
"O  c #2B2B53",
"+  c #2A2A54",
"@  c #2B2B54",
"#  c #2C2C54",
"$  c #2D2D55",
"%  c #2D2D56",
"&  c #2E2E56",
"*  c #2F2F57",
"=  c #323259",
"-  c #33335A",
";  c #34345B",
":  c #35355C",
">  c #37375D",
",  c #37375E",
"<  c #38385E",
"1  c #3A3A60",
"2  c #3C3C62",
"3  c #3D3D63",
"4  c #3E3E63",
"5  c #414165",
"6  c #414166",
"7  c #424267",
"8  c #434367",
"9  c #444468",
"0  c #454569",
"q  c #46466A",
"w  c #48486B",
"e  c #49496C",
"r  c #4A4A6D",
"t  c #4C4C6F",
"y  c #4D4D6F",
"u  c #4E4E70",
"i  c #4F4F71",
"p  c #505071",
"a  c #535374",
"s  c #545475",
"d  c #555576",
"f  c #585878",
"g  c #5A5A79",
"h  c #5A5A7A",
"j  c #5B5B7B",
"k  c #5C5C7B",
"l  c #5D5D7C",
"z  c #5E5E7D",
"x  c #5F5F7D",
"c  c #5F5F7E",
"v  c #60607F",
"b  c #616180",
"n  c #626280",
"m  c #636381",
"M  c #646482",
"N  c #676784",
"B  c #696986",
"V  c #6A6A87",
"C  c #6B6B88",
"Z  c #6C6C88",
"A  c #6E6E8A",
"S  c #6F6F8B",
"D  c #70708C",
"F  c #71718C",
"G  c #73738E",
"H  c #74748E",
"J  c #74748F",
"K  c #777791",
"L  c #797992",
"P  c #7A7A94",
"I  c #7B7B94",
"U  c #7E7E96",
"Y  c #85859D",
"T  c #86869D",
"R  c #88889F",
"E  c #8989A0",
"W  c #9090A5",
"Q  c #9494A9",
"!  c #9C9CAF",
"~  c #9D9DB0",
"^  c #A0A0B2",
"/  c #A3A3B5",
"(  c #A4A4B5",
")  c #A7A7B8",
"_  c #A8A8B9",
"`  c #ABABBB",
"'  c #ABABBC",
"]  c #ACACBC",
"[  c #AEAEBE",
"{  c #AFAFBE",
"}  c #B1B1C0",
"|  c #B5B5C3",
" . c #B6B6C4",
".. c #B7B7C5",
"X. c #BABAC7",
"o. c #BBBBC8",
"O. c #BDBDCA",
"+. c #BFBFCB",
"@. c #C0C0CC",
"#. c #C6C6D1",
"$. c #C8C8D2",
"%. c #CBCBD5",
"&. c #CCCCD6",
"*. c #CDCDD7",
"=. c #CFCFD8",
"-. c #D0D0D9",
";. c #D2D2DB",
":. c #D4D4DC",
">. c #D4D4DD",
",. c #D7D7DF",
"<. c #D8D8DF",
"1. c #DCDCE3",
"2. c #DDDDE3",
"3. c #DEDEE4",
"4. c #DEDEE5",
"5. c #DFDFE5",
"6. c #E0E0E6",
"7. c #E1E1E7",
"8. c #E2E2E7",
"9. c #E3E3E8",
"0. c #E3E3E9",
"q. c #E4E4E9",
"w. c #E5E5EA",
"e. c #E6E6EB",
"r. c #E7E7EB",
"t. c #E9E9ED",
"y. c #EAEAEE",
"u. c #EBEBEF",
"i. c #ECECEF",
"p. c #EDEDF0",
"a. c #EDEDF1",
"s. c #EEEEF2",
"d. c #EFEFF2",
"f. c #F1F1F4",
"g. c #F2F2F4",
"h. c #F2F2F5",
"j. c #F3F3F6",
"k. c #F4F4F6",
"l. c #F6F6F8",
"z. c #FCFCFD",
"x. c #FDFDFE",
"c. c #FEFEFE",
"v. c white",
"b. c None",
/* pixels */
"b.b.b.b.b.b.b.b.b.b.b.b.b.b.b.b.b.b.b.b.b.b.b.b.b.b.b.b.b.b.b.b.b.b.b.b.b.b.b.b.b.b.b.b.b.b.b.b.",
"b.b.b.b.b.b.b.b.b.b.b.b.b.b.b.b.b.b.b.b.b.b.b.b.b.b.b.b.b.b.b.b.b.b.b.b.b.b.b.b.b.b.b.b.b.b.b.b.",
"b.b.b.b.b.b.b.b.b.b.b.b.b.b.b.b.b.b.b.b.b.b.b.b.b.b.b.b.b.b.b.b.b.b.b.b.b.b.b.b.b.b.b.b.b.b.b.b.",
"b.b.b.b.b.b.b.b.b.b.b.b.b.b.b.b.b.b.b.b.b.b.b.b.b.b.b.b.b.b.b.b.b.b.b.b.b.b.b.b.b.b.b.b.b.b.b.b.",
"b.b.b.b.b.b.b.b.b.b.b.b.b.b.b.b.b.b.b.b.o o o o o o o o b.b.b.b.b.b.b.b.b.b.b.b.b.b.b.b.b.b.b.b.",
"b.b.b.b.b.b.b.b.b.b.b.b.b.b.b.b.o o o o o o o o o o o o o o o o b.b.b.b.b.b.b.b.b.b.b.b.b.b.b.b.",
"b.b.b.b.b.b.b.b.b.b.b.b.b.b.o o o o o o o o o o o o o o o o o o o o b.b.b.b.b.b.b.b.b.b.b.b.b.b.",
"b.b.b.b.b.b.b.b.b.b.b.b.b.o o o o o o o o o o o o o o o o o o o o o o b.b.b.b.b.b.b.b.b.b.b.b.b.",
"b.b.b.b.b.b.b.b.b.b.b.o o o o o o o o o 7 c V C c 7 o o o o o o o o o o o b.b.b.b.b.b.b.b.b.b.b.",
"b.b.b.b.b.b.b.b.b.b.o o o o o o % M { u.v.v.v.v.v.v.d. .C % o o o o o o o o b.b.b.b.b.b.b.b.b.b.",
"b.b.b.b.b.b.b.b.b.o o o o o o M <.v.v.v.v.v.v.v.v.v.v.v.v.q.P + o o o o o o o b.b.b.b.b.b.b.b.b.",
"b.b.b.b.b.b.b.b.X o o o o , @.v.v.v.v.v.v.v.v.v.v.v.v.v.v.v.v.%.7 o o o o o o o b.b.b.b.b.b.b.b.",
"b.b.b.b.b.b.b.b.o o o o e 6.v.v.v.v.v.q.( E J F Y ^ 3.v.v.v.v.v.d.j o o o o o o b.b.b.b.b.b.b.b.",
"b.b.b.b.b.b.b.o o o o e d.v.v.v.v.#.j % o o o o o o o t  .v.v.v.v.f.1 o o o o o o b.b.b.b.b.b.b.",
"b.b.b.b.b.b.o o o o < 3.v.v.v.h.V o o o o o o o o o o o o j u.v.;.i o o o D u.@.* X b.b.b.b.b.b.",
"b.b.b.b.b.b.o o o o O.v.v.v.q.t o o o o o o o o o o o o o o 7 U X o f ` % *.v.v.l o b.b.b.b.b.b.",
"b.b.b.b.b.o o o o v v.v.v.k.t o o o o o o o o o o o o o o o o o = ! z.v.L E v.3., o o b.b.b.b.b.",
"b.b.b.b.b.o o o X :.v.v.v.D o o o o o o o o o o o o o o o o o j 3.v.v.v.q.% < % o o o b.b.b.b.b.",
"b.b.b.b.b.o o o b v.v.v.%.o o o o o o o o o o o o o o o o = ! z.v.v.v.v.v.A o o o o o b.b.b.b.b.",
"b.b.b.b.b.o o o ' v.v.v.c o o o o o o o o o o o o o o o l 6.v.v.v.v.v.v.v.X.o o o o o b.b.b.b.b.",
"b.b.b.b.% o o o q.v.v.u.o o o o o o o o o o o o o o = ( v.v.v.v.9.v <.v.v.d.% o o o o o b.b.b.b.",
"b.b.b.b.o o o < v.v.v.{ o o o o o o o o o o o o o b 9.v.v.v.v.( , o ~ v.v.v.e o o o o o b.b.b.b.",
"b.b.b.b.o o o d v.v.v.E o o o o o o o o o o o : ) v.v.v.v.9.v o o o L v.v.v.v o o o o o b.b.b.b.",
"b.b.b.b.o o o b v.v.v.U o o o o o o o o o o M 9.v.v.v.v.d.: o o o o N v.v.v.F o o o o o b.b.b.b.",
"b.b.b.b.o o o b v.v.v.U % o o o o o o o o j *.k.v.v.v.v.v.7 o o o o V v.v.v.J o o o o o b.b.b.b.",
"b.b.b.b.o o o d v.v.v.E o o o o o o o o o o o o 0 A Q X.6.L o o o o U v.v.v.M o o o o o b.b.b.b.",
"b.b.b.b.o o o < v.v.v.{ o o o o o o o o o o o o o o o o o o o o o o ! v.v.v.e o o o o X b.b.b.b.",
"b.b.b.b.% o o o 9.v.v.i.% o o o o o o o o o o o o o o o o o o o o o 3.v.v.f.% o o o o + b.b.b.b.",
"b.b.b.b.b.o o o ` v.v.v.c o o o o o o o o o o o o o o o o o o o o t v.v.v.O.o o o o o b.b.b.b.b.",
"b.b.b.b.b.o o o v v.v.v.*.o o o o o o o o o o o o o o o o o o o o X.v.v.v.F o o o o o b.b.b.b.b.",
"b.b.b.b.b.o o o o ;.v.v.v.D o o o o o o o o o o o o o o o o o o c v.v.v.3.% o o o o o b.b.b.b.b.",
"b.b.b.b.b.o o o o l v.v.v.k.p o o o o o o o o o o o o o o o o 7 d.v.v.v.D o o o o o + b.b.b.b.b.",
"b.b.b.b.b.b.o o o o X.v.v.v.q.t o o o o o o o o o o o o o o 0 1.v.v.v.%.+ o o o o o b.b.b.b.b.b.",
"b.b.b.b.b.b.o o o o , 3.v.v.v.k.A o o o o o o o o o o o o M d.v.v.v.q.3 o o o o o o b.b.b.b.b.b.",
"b.b.b.b.b.b.b.o o o o w d.v.v.v.v.#.l % o o o o o + o p O.v.v.v.v.k.d o o o o o o b.b.b.b.b.b.b.",
"b.b.b.b.b.b.b.b.o o o o e 3.v.v.v.v.v.q.` Y J D Y ( 6.v.v.v.v.v.q.d o o o o o o b.b.b.b.b.b.b.b.",
"b.b.b.b.b.b.b.b.o o o o o , O.v.v.v.v.v.v.v.v.v.v.v.v.v.v.v.v.$.4 + o o o o o o b.b.b.b.b.b.b.b.",
"b.b.b.b.b.b.b.b.b.o o o o o o v :.v.v.v.v.v.v.v.v.v.v.v.v.3.F + o o o o o o + b.b.b.b.b.b.b.b.b.",
"b.b.b.b.b.b.b.b.b.b.o o o o o o o b { u.v.v.v.v.v.v.i.| C % o o o o o o o o b.b.b.b.b.b.b.b.b.b.",
"b.b.b.b.b.b.b.b.b.b.b.o o o o o o o o o 3 j V A c 7 o o o o o o o o o o o b.b.b.b.b.b.b.b.b.b.b.",
"b.b.b.b.b.b.b.b.b.b.b.b.b.o o o o o o o o o o o o o o o o o o o o o X b.b.b.b.b.b.b.b.b.b.b.b.b.",
"b.b.b.b.b.b.b.b.b.b.b.b.b.b.X o o o o o o o o o o o o o o o o o o + b.b.b.b.b.b.b.b.b.b.b.b.b.b.",
"b.b.b.b.b.b.b.b.b.b.b.b.b.b.b.b.o o o o o + o o o o o o o o o + b.b.b.b.b.b.b.b.b.b.b.b.b.b.b.b.",
"b.b.b.b.b.b.b.b.b.b.b.b.b.b.b.b.b.b.b.b.+ X o o o o o + b.b.b.b.b.b.b.b.b.b.b.b.b.b.b.b.b.b.b.b.",
"b.b.b.b.b.b.b.b.b.b.b.b.b.b.b.b.b.b.b.b.b.b.b.b.b.b.b.b.b.b.b.b.b.b.b.b.b.b.b.b.b.b.b.b.b.b.b.b.",
"b.b.b.b.b.b.b.b.b.b.b.b.b.b.b.b.b.b.b.b.b.b.b.b.b.b.b.b.b.b.b.b.b.b.b.b.b.b.b.b.b.b.b.b.b.b.b.b.",
"b.b.b.b.b.b.b.b.b.b.b.b.b.b.b.b.b.b.b.b.b.b.b.b.b.b.b.b.b.b.b.b.b.b.b.b.b.b.b.b.b.b.b.b.b.b.b.b.",
"b.b.b.b.b.b.b.b.b.b.b.b.b.b.b.b.b.b.b.b.b.b.b.b.b.b.b.b.b.b.b.b.b.b.b.b.b.b.b.b.b.b.b.b.b.b.b.b."
};
