/* XPM */
static char *AudacityLogo48x48[] = {
/* columns rows colors chars-per-pixel */
"48 48 85 1 ",
"  c #2A2A53",
". c #2B2B54",
"X c #2F2F57",
"o c #323259",
"O c #34345B",
"+ c #37375E",
"@ c #38385E",
"# c #3B3B60",
"$ c #3C3C62",
"% c #3E3E63",
"& c #414165",
"* c #444468",
"= c #46466A",
"- c #49496C",
"; c #4C4C6F",
": c #4E4E70",
"> c #505071",
", c #535374",
"< c #555576",
"1 c #5A5A7A",
"2 c #5C5C7B",
"3 c #5E5E7D",
"4 c #60607F",
"5 c #626280",
"6 c #646482",
"7 c #676784",
"8 c #6A6A87",
"9 c #6B6B88",
"0 c #6E6E8A",
"q c #6F6F8B",
"w c #70708C",
"e c #71718C",
"r c #74748E",
"t c #777791",
"y c #797992",
"u c #7B7B94",
"i c #7E7E96",
"p c #7F7F98",
"a c #808098",
"s c #818199",
"d c #85859D",
"f c #88889F",
"g c #8989A0",
"h c #8D8DA3",
"j c #8F8FA5",
"k c #9090A5",
"l c #9494A9",
"z c #9999AD",
"x c #9C9CAF",
"c c #9D9DB0",
"v c #A0A0B2",
"b c #A4A4B5",
"n c #A7A7B8",
"m c #ABABBB",
"M c #ABABBC",
"N c #AEAEBE",
"B c #B3B3C2",
"V c #B6B6C4",
"C c #BABAC7",
"Z c #BBBBC8",
"A c #BDBDCA",
"S c #C0C0CC",
"D c #C6C6D1",
"F c #CBCBD5",
"G c #CCCCD6",
"H c #CFCFD9",
"J c #D0D0D9",
"K c #D4D4DD",
"L c #D7D7DF",
"P c #DCDCE3",
"I c #DEDEE4",
"U c #E0E0E6",
"Y c #E3E3E9",
"T c #E4E4E9",
"R c #E7E7EB",
"E c #E8E8EC",
"W c #ECECEF",
"Q c #EFEFF2",
"! c #F0F0F3",
"~ c #F2F2F5",
"^ c #F4F4F6",
"/ c #F7F7F8",
"( c #FAFAFB",
") c #FBFBFC",
"_ c white",
/* pixels */
"________________________________________________",
"________________________________________________",
"________________________________________________",
"________________________________________________",
"__________________Hz0;@XX+:0zJ__________________",
"_______________Th%            &hT_______________",
"_____________QpX                XpQ_____________",
"____________B@                    #V____________",
"__________)i       .&3893&          i)__________",
"_________/7     X6BE______QV9X       8~_________",
"________)7     6L____________Yy.      5(________",
"________i    +S________________F=      s________",
"_______B    -U_____TnfrwdvI_____Q1    ..V_______",
"______Q#   -Q____D1.       ;V____~#    .@Q______",
"______p   +I___~0            3E_F> . 0ESos______",
"_____EX   A___T;             .&iX <N.J__1oT_____",
"_____j   3___~;                 oz__yf_Io j_____",
"_____&  .L___0                 1I___YX@X..&)____",
"____H   5___F                ox______0   . J____",
"____z   M___3               2U_______C   ..z____",
"____0   T__E              ob____Y3P__Q     0____",
"____:  @___B             4Y____b+ z___-.  .>____",
"____@. <___j           On____Y5   u___3.   #____",
"____X  5___y          5T____Qo    7___w    X____",
"____X  4___u         1H~_____&    8___y.   o____",
"____+  <___k           .=0lCUy    i___5    #____",
"____:  @___N                      x___-    >____",
"____0   Y__WX                     I__QX    w____",
"____z   m___3                    :___Z     z____",
"____J   5___G                    C___w     L____",
"_____&   J___w                  3___UX    %_____",
"_____j   3___^>              ..&Q___0     j_____",
"_____To   C___T:              =I___F     oE_____",
"______s.  +I___~0            6Q___Y#    .s______",
"______Q#   =Q____D1X       <A____^<     #Q______",
"_______V    -I_____YmdwwdbU_____T<      V_______",
"________s    +A________________D%.     s________",
"_________0     4L____________Iw       8_________",
"_________~6     X5NT______QV8X       8^_________",
"___________s     .. %3883&          s___________",
"____________V@X                   #C____________",
"_____________QsX .             .XdQ_____________",
"_______________Ej& . X    ..  &jE_______________",
"__________________Jz0>+XX@>wcJ__________________",
"________________________________________________",
"________________________________________________",
"________________________________________________",
"________________________________________________"
};
