<?xml version="1.0" encoding="UTF-8" standalone="no"?>
<!-- Created with Inkscape (http://www.inkscape.org/) -->

<svg
   xmlns:dc="http://purl.org/dc/elements/1.1/"
   xmlns:cc="http://creativecommons.org/ns#"
   xmlns:rdf="http://www.w3.org/1999/02/22-rdf-syntax-ns#"
   xmlns:svg="http://www.w3.org/2000/svg"
   xmlns="http://www.w3.org/2000/svg"
   xmlns:sodipodi="http://sodipodi.sourceforge.net/DTD/sodipodi-0.dtd"
   xmlns:inkscape="http://www.inkscape.org/namespaces/inkscape"
   id="svg2"
   sodipodi:version="0.32"
   inkscape:version="0.91 r13725"
   width="128"
   height="128"
   version="1.0"
   sodipodi:docname="audacity.svg"
   inkscape:output_extension="org.inkscape.output.svg.inkscape"
   style="display:inline">
  <metadata
     id="metadata7">
    <rdf:RDF>
      <cc:Work
         rdf:about="">
        <dc:format>image/svg+xml</dc:format>
        <dc:type
           rdf:resource="http://purl.org/dc/dcmitype/StillImage" />
        <cc:license
           rdf:resource="GPL v2 or later" />
        <dc:title>Audacity Icon</dc:title>
        <dc:rights>
          <cc:Agent>
            <dc:title>Audacity development team</dc:title>
          </cc:Agent>
        </dc:rights>
        <dc:creator>
          <cc:Agent>
            <dc:title>Aaron Spike</dc:title>
          </cc:Agent>
        </dc:creator>
        <dc:date>2009-06-14</dc:date>
      </cc:Work>
    </rdf:RDF>
  </metadata>
  <defs
     id="defs5">
    <clipPath
       clipPathUnits="userSpaceOnUse"
       id="clipPath3126">
      <path
         style="fill:none;fill-opacity:1;fill-rule:evenodd;stroke:#000000;stroke-width:1px;stroke-linecap:butt;stroke-linejoin:miter;stroke-opacity:1"
         d="M 30,94 L 32,96 L 35,106 L 36,94 L 39,109 L 39,90 L 41,95 L 44,109 L 44,90 L 46,92 L 49,109 L 52,86 L 58.615678,111.91971 L 59,96 L 61,90 L 63,115 L 69,90 L 71,111 L 76,89 L 81,113 L 82,95 L 85,89 L 86,112 L 91,90 L 94,100 L 95,91 L 98,97 L 98,78 L 95,86 L 94,69 L 92,82 L 90,78 L 89,64 L 84,83 L 83,79 L 80,49 L 77,75 L 75,83 L 71,56 L 67,79 L 65,85 L 64,43.695313 L 58,90 L 52,48 L 49,84 L 47,80 L 45,56 L 44,80 L 41,87 L 39,63 L 37,82 L 34,77 L 34,91 L 30,76 L 30,94 z"
         id="path3128"
         sodipodi:nodetypes="ccccccccccccccccccccccccccccccccccccccccccccccccccccccc" />
    </clipPath>
    <clipPath
       clipPathUnits="userSpaceOnUse"
       id="clipPath2798">
      <path
         style="fill:#000000;fill-opacity:1;fill-rule:nonzero;stroke:none;stroke-width:18.98999977;stroke-linecap:square;stroke-linejoin:round;marker:none;marker-start:none;marker-mid:none;marker-end:none;stroke-miterlimit:4;stroke-dashoffset:0;stroke-opacity:1;visibility:visible;display:inline;overflow:visible;enable-background:accumulate"
         d="M 64,6.875 C 50.736931,6.8749995 38.641338,11.015795 29.71875,17.96875 C 20.796162,24.921705 15.000001,34.870138 15,45.9375 L 15,49.9375 C 6.141206,54.425978 -2.65625e-07,66.200002 0,80 C 3.5e-07,97.663999 10.049452,112 23,112 L 23,45.9375 C 23.000001,37.64941 27.289844,30.021544 34.65625,24.28125 C 42.022656,18.540956 52.424603,14.875 64,14.875 C 75.575394,14.875 85.977345,18.540955 93.34375,24.28125 C 100.71016,30.021545 105,37.649411 105,45.9375 L 105,112 C 117.95055,112 128,97.663999 128,80 C 128,66.200002 121.85879,54.425978 113,49.9375 L 113,45.9375 C 113,34.870138 107.20384,24.921705 98.28125,17.96875 C 89.358662,11.015795 77.263067,6.8750003 64,6.875 z M 26,49 L 26,112 C 28,112 30,111 31,109 L 31,51 C 30,50 28,49 26,49 z M 102,49 C 100,49 98,50 97,51 L 97,109 C 98,111 100,112 102,112 L 102,49 z"
         id="path2800"
         sodipodi:nodetypes="csccsccsssccsccsccccccccccc" />
    </clipPath>
  </defs>
  <sodipodi:namedview
     inkscape:window-height="716"
     inkscape:window-width="1366"
     inkscape:pageshadow="2"
     inkscape:pageopacity="0.0"
     guidetolerance="10.0"
     gridtolerance="50"
     objecttolerance="10.0"
     borderopacity="1.0"
     bordercolor="#666666"
     pagecolor="#ffffff"
     id="base"
     showguides="true"
     inkscape:guide-bbox="true"
     showgrid="false"
     inkscape:object-paths="false"
     inkscape:grid-points="false"
     inkscape:grid-bbox="false"
     inkscape:zoom="1.4142136"
     inkscape:cx="185.8059"
     inkscape:cy="0.46654269"
     inkscape:window-x="0"
     inkscape:window-y="0"
     inkscape:current-layer="layer2"
     inkscape:window-maximized="1">
    <inkscape:grid
       id="GridFromPre046Settings"
       type="xygrid"
       originx="0px"
       originy="0px"
       spacingx="1px"
       spacingy="1px"
       color="#0000ff"
       empcolor="#0000ff"
       opacity="0.2"
       empopacity="0.4"
       empspacing="4" />
  </sodipodi:namedview>
  <g
     inkscape:groupmode="layer"
     id="layer2"
     inkscape:label="new"
     style="display:inline">
    <g
       id="g3390"
       transform="matrix(2.4849377,0,0,-2.4849377,-177.03896,128.60838)">
      <circle
         transform="scale(1,-1)"
         r="25.755173"
         cy="-26"
         cx="97"
         id="path3388"
         style="opacity:1;fill:#2a2a53;fill-opacity:1;stroke:none;stroke-width:0.40000001;stroke-linecap:round;stroke-linejoin:round;stroke-miterlimit:4;stroke-dasharray:none;stroke-dashoffset:0;stroke-opacity:1" />
      <path
         inkscape:connector-curvature="0"
         id="path3386"
         style="fill:#ffffff;fill-opacity:1;fill-rule:evenodd;stroke:none"
         d="m 115.96935,38.840635 c -1.1055,0 -2.002,-0.8957 -2.002,-2.0012 0,-1.1054 0.8965,-2.0011 2.002,-2.0011 1.1047,0 2,0.8957 2,2.0011 0,1.1055 -0.8953,2.0012 -2,2.0012 z m -0.4578,-12.841 c 0,-10.9016 -8.8391,-19.73947 -19.7406,-19.73947 -10.9024,0 -19.7403,8.83787 -19.7403,19.73947 0,10.9012 8.8379,19.7402 19.7403,19.7402 5.7472,0 10.9203,-2.4586 14.5277,-6.3801 l -4.009,-2.5507 c -2.7273,2.721 -6.3613,4.2738 -10.5187,4.2738 -8.3309,0 -15.0836,-6.7524 -15.0836,-15.0832 0,-8.3313 6.7527,-15.084 15.0836,-15.084 8.33,0 15.0839,6.7527 15.0839,15.084 0,1.8523 -0.3355,3.6262 -0.948,5.2668 l -6.7109,-4.4641 0.8957,-3.4308 -10.6039,1.9218 18.3617,12.1528 c 2.3015,-3.2305 3.6621,-7.1782 3.6621,-11.4465" />
    </g>
  </g>
</svg>
