/* XPM */
static char *gnome_mime_application_x_audacity_project[] = {
/* columns rows colors chars-per-pixel */
"48 48 209 2 ",
"   c #1D1D36",
".  c #1B1B38",
"X  c #1C1C38",
"o  c #1D1D39",
"O  c #1D1D3A",
"+  c #1E1E3A",
"@  c #1E1E3B",
"#  c #1F1F3B",
"$  c #1F1F3C",
"%  c #1E1E3D",
"&  c #1F1F3D",
"*  c #1F1F3E",
"=  c #1F1F3F",
"-  c #202039",
";  c #20203E",
":  c #21213E",
">  c #20203F",
",  c #21213F",
"<  c #212140",
"1  c #202041",
"2  c #212141",
"3  c #222240",
"4  c #222241",
"5  c #212143",
"6  c #222242",
"7  c #232343",
"8  c #222244",
"9  c #232344",
"0  c #232345",
"q  c #232346",
"w  c #232347",
"e  c #242445",
"r  c #252545",
"t  c #242446",
"y  c #252546",
"u  c #242447",
"i  c #232348",
"p  c #242448",
"a  c #252548",
"s  c #242449",
"d  c #252549",
"f  c #262649",
"g  c #24244A",
"h  c #25254A",
"j  c #25254B",
"k  c #26264A",
"l  c #26264B",
"z  c #27274B",
"x  c #26264C",
"c  c #26264D",
"v  c #27274D",
"b  c #27274E",
"n  c #28284D",
"m  c #28284E",
"M  c #28284F",
"N  c #2A2A4F",
"B  c #282850",
"V  c #292950",
"C  c #282851",
"Z  c #292951",
"A  c #292952",
"S  c #2A2A52",
"D  c #2A2A53",
"F  c #2B2B54",
"G  c #2C2C54",
"H  c #2C2C55",
"J  c #2E2E56",
"K  c #2F2F57",
"L  c #303058",
"P  c #313158",
"I  c #323259",
"U  c #32325A",
"Y  c #34345B",
"T  c #35355C",
"R  c #36365C",
"E  c #37375E",
"W  c #3B3B60",
"Q  c #3C3C61",
"!  c #3C3C62",
"~  c #3E3E63",
"^  c #3F3F64",
"/  c #404065",
"(  c #414165",
")  c #434367",
"_  c #454569",
"`  c #474768",
"'  c #46466A",
"]  c #47476B",
"[  c #48486B",
"{  c #49496C",
"}  c #4E4E6D",
"|  c #4D4D6F",
" . c #4E4E70",
".. c #4F4F71",
"X. c #505071",
"o. c #505072",
"O. c #525273",
"+. c #545473",
"@. c #555575",
"#. c #565677",
"$. c #575777",
"%. c #585878",
"&. c #595979",
"*. c #5B5B7B",
"=. c #5F5F7B",
"-. c #5D5D7C",
";. c #5E5E7D",
":. c #5F5F7D",
">. c #606080",
",. c #626280",
"<. c #646482",
"1. c #676784",
"2. c #6C6C88",
"3. c #6D6D89",
"4. c #717189",
"5. c #74748E",
"6. c #777790",
"7. c #7A7A94",
"8. c #7C7C95",
"9. c #7E7E94",
"0. c #83839A",
"q. c #86869B",
"w. c #84849C",
"e. c #85859D",
"r. c #86869D",
"t. c #87879E",
"y. c #89899E",
"u. c #88889F",
"i. c #8A8AA1",
"p. c #8F8FA5",
"a. c #9191A6",
"s. c #9292A7",
"d. c #9393A8",
"f. c #9595A9",
"g. c #9797AB",
"h. c #9999AD",
"j. c #9A9AAD",
"k. c #9B9BAE",
"l. c #9C9CAF",
"z. c #9F9FB1",
"x. c #A1A1B3",
"c. c #A3A3B5",
"v. c #A4A4B5",
"b. c #A5A5B6",
"n. c #A6A6B7",
"m. c #A7A7B8",
"M. c #A8A8B9",
"N. c #AAAABA",
"B. c #ABABBC",
"V. c #ACACBC",
"C. c #ADADBD",
"Z. c #AEAEBE",
"A. c #AFAFBE",
"S. c #B0B0C0",
"D. c #B3B3C1",
"F. c #B3B3C2",
"G. c #B5B5C3",
"H. c #B6B6C4",
"J. c #B8B8C6",
"K. c #B9B9C6",
"L. c #BBBBC8",
"P. c #BCBCC8",
"I. c #BFBFCB",
"U. c #C0C0CC",
"Y. c #C3C3CE",
"T. c #C8C8D2",
"R. c #CCCCD6",
"E. c #CFCFD7",
"W. c #D0D0D9",
"Q. c #D1D1DA",
"!. c #D5D5DD",
"~. c #D7D7DF",
"^. c #D8D8DF",
"/. c #D9D9E1",
"(. c #DBDBE2",
"). c #DDDDE3",
"_. c #DEDEE4",
"`. c #DEDEE6",
"'. c #E0E0E6",
"]. c #E2E2E7",
"[. c #E3E3E8",
"{. c #E3E3E9",
"}. c #E6E6EA",
"|. c #E6E6EB",
" X c #E8E8EC",
".X c #E9E9ED",
"XX c #EBEBEF",
"oX c #ECECEF",
"OX c #EDEDF0",
"+X c #EEEEF2",
"@X c #EFEFF2",
"#X c #F0F0F3",
"$X c #F1F1F4",
"%X c #F2F2F5",
"&X c #F3F3F5",
"*X c #F3F3F6",
"=X c #F4F4F6",
"-X c #F6F6F8",
";X c #F7F7F8",
":X c #F8F8FA",
">X c #F9F9FA",
",X c #FAFAFB",
"<X c #FBFBFC",
"1X c gray99",
"2X c #FCFCFD",
"3X c #FDFDFE",
"4X c #FEFEFE",
"5X c white",
"6X c None",
/* pixels */
"6X6X6X6X6X6X6X6X6X6X6X6X6X6X6X6X6X6X6X6X6X6X6X6X6X6X6X6X6X6X6X6X6X6X6X6X6X6X6X6X6X6X6X6X6X6X6X6X",
"6X6X6X6X6X6Xt h c g c c h c c c c h c c c c c h c c h c c c c h h 7 4 4 # 6X6X6X6X6X6X6X6X6X6X6X",
"6X6X6X6Xc F Z F F F C F Z Z F F F Z Z F F C F C Z F F F Z F Z Z Z m h t q # 6X6X6X6X6X6X6X6X6X6X",
"6X6X6XZ Z F Z F C F F F F F F Z F F F Z F C F F F Z Z F F F Z H Z m h t 4 = 6X6X6X6X6X6X6X6X6X6X",
"6X6Xc F F F F Z F F C C C F F F Z F F C F F C F C F F F F F Z F F Z c h # . : 6X6X6X6X6X6X6X6X6X",
"6X6XZ C F Z F F C F F F F F C C Z F F C F C F F F F C Z Z F Z F Z Z c h . # # 6X6X6X6X6X6X6X6X6X",
"6X4 F F C F Z F C F F F F C F F F F F F F F C C F C F F Z F F C Z m c t # .   1 6X6X6X6X6X6X6X6X",
"6Xt C F F F C F F F C C F F C F F Z Z F C F F F F F Z F F F Z c m m c t . # . # 6X6X6X6X6X6X6X6X",
"6Xh Z Z C F F F C C F F F C F F F Z Z F F Z Z F C F F F C C C c c m h c #   . # 4 6X6X6X6X6X6X6X",
"6Xt F F F F C F F F F C F Z F C F F F F F F F F C F C F F F c c c h c h = # # . # . 6X6X6X6X6X6X",
"6Xq Z F F C F C F F F C F F Z F Z F F Z Z F F Z F F F F Z Z m c h h h h h #   # . 1 6X6X6X6X6X6X",
"6Xh Z F F C F F C C F F Z F F F Z F H >.d.c.L.K.m.w. .F F Z m h h h t t q q # . . # # 6X6X6X6X6X",
"6Xt F Z F F C F F F C F F C F Z _ B.$X4X4X4X4X4X4X4X4X`.0.F c h h h h t t q t = # # = 6X6X6X6X6X",
"6Xh F Z F Z F F F C F F F F I z.:X4X4X4X4X4X4X4X4X4X4X4X4X).=.h h t q t q t q h 4 . # : 6X6X6X6X",
"6Xt F F F F C C F F C C C ~ W.4X4X4X4X4XR.V.g.x.G.{.4X4X4X4X4Xq.h h h t h h h t h t . = 6X6X6X6X",
"6Xt Z F C F F F C F F F ~ |.4X4X4X+Xu.W F F Z F F Z X.F.4X4X4X4X9.h h h h h h h h h i # = 6X6X6X",
"6Xq C F C F F F Z F Z I Q.4X4X4XH.E Z F F F C C F F C F %..X-Xi.m c c 4.+Xx.c c c h h h 4 6X6X6X",
"6Xi F F F F C C F F Z c.4X4X4Xk.H Z Z F C F F F F C F F F ~ _ Z } Q.[ P.4X&Xc m m c h t i : 6X6X",
"6Xh F C F C F F F Z _ >X4X4XH.F F Z F F C F F F F F C C F F H d.<X4XU.+.U.6.m Z m Z c h t q 6X6X",
"6Xq F C F F C F F F F.4X4X+XY Z F F F Z F F C C C F F F Z X./.4X4X4X4XX.m m Z Z Z Z Z m h t 6X6X",
"6Xh Z Z F C F F Z K *X4X4Xw.F F Z F F C F F F F F F H H g.4X4X4X4X4X4Xm.C Z Z C H Z Z Z h h   6X",
"6Xt F F F Z F C F 1.4X4X<XE Z F Z F F C F C Z F Z Z @./.4X4X4X/.V.4X4X{.F F F F Z F F Z c h - 6X",
"6Xh Z F F F Z F Z k.4X4XT.F C F F F F F F F C F I k.4X4X4X<Xk.I  .4X4X4X~ F Z F F F F F m c : 6X",
"6Xi Z F Z F F F Z V.4X4Xc.F F F F C C F C F F o./.4X4X4X/.%.F Z H <X4X4X%.F F F F Z Z F Z m : 6X",
"6Xt F F Z Z F F Z U.4X4Xd.F F Z C F F F F K z.<X4X4X4X>XI Z F F Z +X4X4X1.F F Z C F F F F Z 4 6X",
"6Xt Z F F F F Z F K.4X4Xk.Z F Z F F C C C %.z.U..X4X4X4X@.F F Z F $X4X4X:.Z F Z F F Z Z Z F 4 6X",
"6Xq Z F F F F C Z b.4X4XV.F F F F C F F F F F F F W >.i.*.F F Z E 4X4X4X{ F F F F C F F F F t 6X",
"6Xh F Z C C F F F i.4X4X`.F Z F F F C F F C C F Z F F Z F Z F F <.4X4X4XI F Z F F F Z F F Z t 6X",
"6Xi F F F F F C F  .4X4X4X .C F C C F F F C F F F C C F Z C F F m.4X4XT.F F F C C C F F F Z t 6X",
"6Xi C C F C F F Z F '.4X4XV.F F F F F C F C F C F F F F F F F W =X4X4Xt.C C F F F F F C F Z t 6X",
"6Xt F F C F C F Z F i.4X4X4X@.F F F F C F F C F C F F C F C C S.4X4X@XW F F C F F F F C Z F t 6X",
"6Xh C F F F C F F Z I {.4X4X|.W C C F F C F F F C F F C F F 7.4X4X4Xp.F F C F F C C F F H Z t 6X",
"6Xt F Z C F F F C F F 2.4X4X4X/.( Z F F F Z Z F F F Z F F 8.>X4X4X).I F F C F F F C F F C C i 6X",
"6Xt F F F F C F C F F C d.4X4X4X+X5.H Z F F F F Z F F W V.4X4X4X$X[ F Z F C F C F F C F F F t 6X",
"6Xi Z F F C F C F F F F F N.4X4X4X4X!.t._ F Z Z K >.c.*X4X4X4X$X-.F F Z F F C F C C F F F F t 6X",
"6Xi Z F F C F F F C C F F Z t.4X4X4X4X4X4X>X|.+X4X4X4X4X4X4X`.] F Z F F C F F F F F F C Z Z t 6X",
"6Xt F Z F F C F F F F C Z Z F  .J.4X4X4X4X4X4X4X4X4X4X4X-Xz.Y F F Z F F C F F C F F F Z F F i 6X",
"6Xh F Z F Z F F C C F F F F F Z Z -.m..X4X4X4X4X4X4XR.i.! Z F F F F C F C F F C C Z F F F Z t 6X",
"6Xt F F F F C C F F C F F F F Z F F Z F ( &.2.>. .E Z Z F F Z Z Z C F F F F F F F F Z F F F h 6X",
"6Xt Z F C F F F F C F F C Z F F Z F F F F Z F C F Z F F Z F F F F F F C F C C F F C F F Z Z t 6X",
"6Xq F F F F F Z F C F F C C F F F C F F F C F F F F F C F C C F F C C F Z F F F F C F F C C q 6X",
"6X4 C Z C C F F F F C F F F F C F C F C F F C F C C F F F F F F F F F F F F Z Z F F C F F F 4 6X",
"6X6XZ F F F Z F C C F F F F F C F F Z F C C F F F F C F C F F Z C F F C F C F F C C F F Z Z 6X6X",
"6X6Xi F F C F F F F F C C C F F Z F F F F F F C F C F F C F F Z C F F C F F Z F F F F C F h 6X6X",
"6X6X6Xc Z F Z Z Z F F F F F F C F F Z Z F F F Z F F C F Z F F F F F F C F Z F F Z F Z Z c 6X6X6X",
"6X6X6X6Xh Z F F F F Z Z F C F F Z F F F Z Z F F C F C F F F Z F F C F F Z Z F Z F F Z h 6X6X6X6X",
"6X6X6X6X6X6X: q q q q 4 q q q 4 t 4 4 q q q q 4 4 q q q t 4 4 t q q q 4 t q 4 q q : 6X6X6X6X6X6X",
"6X6X6X6X6X6X6X6X6X6X6X6X6X6X6X6X6X6X6X6X6X6X6X6X6X6X6X6X6X6X6X6X6X6X6X6X6X6X6X6X6X6X6X6X6X6X6X6X"
};
