/* XPM */
static char *audacity[] = {
/* columns rows colors chars-per-pixel */
"16 16 75 1 ",
"  c #292953",
". c #2A2A53",
"X c #2B2B53",
"o c #2A2A54",
"O c #2B2B54",
"+ c #2C2C54",
"@ c #2D2D55",
"# c #2E2E56",
"$ c #2F2F57",
"% c #303058",
"& c #313158",
"* c #32325A",
"= c #34345B",
"- c #3A3A60",
"; c #414166",
": c #505072",
"> c #525273",
", c #555575",
"< c #5F5F7E",
"1 c #60607F",
"2 c #626280",
"3 c #646482",
"4 c #696986",
"5 c #6B6B88",
"6 c #6C6C88",
"7 c #6E6E8A",
"8 c #72728D",
"9 c #73738E",
"0 c #74748E",
"q c #797992",
"w c #7A7A93",
"e c #7A7A94",
"r c #7C7C95",
"t c #7E7E96",
"y c #83839B",
"u c #86869D",
"i c #8C8CA2",
"p c #8D8DA3",
"a c #8F8FA5",
"s c #9090A5",
"d c #9393A8",
"f c #9494A9",
"g c #9696AA",
"h c #9797AB",
"j c #9C9CAF",
"k c #9D9DB0",
"l c #9E9EB1",
"z c #A6A6B7",
"x c #ABABBC",
"c c #BBBBC8",
"v c #BCBCC9",
"b c #BDBDCA",
"n c #BEBECA",
"m c #BFBFCB",
"M c #C0C0CC",
"N c #C1C1CD",
"B c #C5C5D0",
"V c #C6C6D1",
"C c #C9C9D3",
"Z c #CACAD4",
"A c #D4D4DD",
"S c #D5D5DD",
"D c #D7D7DF",
"F c #DBDBE2",
"G c #DCDCE3",
"H c #EDEDF1",
"J c #EEEEF2",
"K c #F2F2F5",
"L c #FAFAFB",
"P c #FBFBFC",
"I c gray99",
"U c #FCFCFD",
"Y c #FEFEFE",
"T c white",
"R c None",
/* pixels */
"RRRRRXXXXX+RRRRR",
"RRRXXX$;*  +XRRR",
"RRXX1VTTTAe   RR",
"R  gTFp9yBTv+XXR",
"R tTj+  XX734zeR",
" *JvXX  XX:ST<*X",
"+5T,XX  +dLvKz  ",
"XpL XXX:FUqXVN  ",
"XpL    4dc-+Zv+ ",
"X5T,+  X   +Kk+ ",
"X*JcXXX  + iT:XX",
"RXtTk+XX  0TxXXR",
"RXXdTGs9uZTv*XXR",
"RR  <VUTTSe XXRR",
"RRR + *-*XXXXRRR",
"RRRRR  XXXXRRRRR"
};
